<svg width="566" height="566" viewBox="0 0 566 566" fill="none" xmlns="http://www.w3.org/2000/svg">
<path d="M434.3 522.9H131.2C82.2001 522.9 42.6001 483.2 42.6001 434.3V131.2C42.6001 82.2 82.3001 42.6 131.2 42.6H434.3C483.3 42.6 522.9 82.3 522.9 131.2V434.3C522.9 483.2 483.2 522.9 434.3 522.9Z" fill="white"/>
<path d="M418.2 565.4H147.2C66 565.4 0 499.4 0 418.2V147.2C0 66 66 0 147.2 0H418.2C499.4 0 565.4 66 565.4 147.2V418.2C565.4 499.4 499.4 565.4 418.2 565.4ZM147.2 85C112.9 85 85 112.9 85 147.2V418.2C85 452.5 112.9 480.4 147.2 480.4H418.2C452.5 480.4 480.4 452.5 480.4 418.2V147.2C480.4 112.9 452.5 85 418.2 85H147.2Z" fill="#E03646"/>
<path d="M407.5 436.9H157.9C141.7 436.9 128.6 423.8 128.6 407.6V158C128.6 141.8 141.7 128.7 157.9 128.7H407.5C423.7 128.7 436.8 141.8 436.8 158V407.6C436.8 423.8 423.7 436.9 407.5 436.9Z" fill="#E03646"/>
<path d="M243 113.8L106.7 250.1" stroke="white" stroke-width="15" stroke-miterlimit="10"/>
<path d="M390.6 101L101 390.6" stroke="white" stroke-width="15" stroke-miterlimit="10"/>
<path d="M456.4 166.9L166.9 456.5" stroke="white" stroke-width="15" stroke-miterlimit="10"/>
<path d="M452.9 302.2L295.1 460" stroke="white" stroke-width="15" stroke-miterlimit="10"/>
</svg>
