<?xml version="1.0" encoding="UTF-8"?>
<svg id="_Слой_2" data-name="Слой 2" xmlns="http://www.w3.org/2000/svg" viewBox="0 0 177.31 21.66">
  <defs>
    <style>
      .cls-1 {
        fill: #ffc100;
        stroke-width: 0px;
      }
    </style>
  </defs>
  <g id="Layer_1" data-name="Layer 1">
    <g>
      <polygon class="cls-1" points="18.27 21.66 11.29 16.63 4.23 21.55 6.86 13.36 0 8.16 8.6 8.13 11.43 0 14.11 8.17 22.72 8.35 15.77 13.43 18.27 21.66"/>
      <polygon class="cls-1" points="56.92 21.66 49.94 16.63 42.88 21.55 45.51 13.36 38.65 8.16 47.25 8.13 50.07 0 52.76 8.17 61.37 8.35 54.42 13.43 56.92 21.66"/>
      <polygon class="cls-1" points="95.57 21.66 88.59 16.63 81.53 21.55 84.16 13.36 77.3 8.16 85.9 8.13 88.72 0 91.41 8.17 100.02 8.35 93.07 13.43 95.57 21.66"/>
      <polygon class="cls-1" points="134.22 21.66 127.24 16.63 120.17 21.55 122.81 13.36 115.95 8.16 124.55 8.13 127.37 0 130.06 8.17 138.66 8.35 131.72 13.43 134.22 21.66"/>
      <polygon class="cls-1" points="172.87 21.66 165.88 16.63 158.82 21.55 161.45 13.36 154.59 8.16 163.2 8.13 166.02 0 168.71 8.17 177.31 8.35 170.37 13.43 172.87 21.66"/>
    </g>
  </g>
</svg>