<svg width="564" height="54" viewBox="0 0 564 54" fill="none" xmlns="http://www.w3.org/2000/svg">
<g filter="url(#filter0_d_1_33)">
<path d="M48.008 19.616C48.072 21.088 48.104 22.528 48.104 23.936C48.104 40.192 40.584 48.32 25.544 48.32C20.04 48.32 13.384 47.264 5.576 45.152L8.552 38.048C15.72 39.2 20.968 39.776 24.296 39.776C28.776 39.776 32.072 38.912 34.184 37.184C36.552 35.264 37.736 32.064 37.736 27.584L13.256 27.488C11.464 27.488 9.736 26.944 8.072 25.856C6.088 24.512 5.096 22.752 5.096 20.576V5.696H37.448V1.856L46.952 0.895997V12.608L15.56 12.704V19.616H48.008ZM99.0688 44L60.9568 43.808C59.2288 43.808 57.5968 43.2 56.0608 41.984C54.2688 40.576 53.3727 38.784 53.3727 36.608L53.4688 20.192H88.5088C88.5088 13.856 84.2528 10.688 75.7408 10.688C72.0928 10.688 66.5888 11.264 59.2288 12.416L56.1568 5.312C63.3248 3.328 69.8208 2.336 75.6448 2.336C83.0048 2.336 88.7328 3.904 92.8288 7.04C96.9888 10.112 99.0688 14.496 99.0688 20.192V44ZM88.6048 35.84V27.2H63.9328V35.84H88.6048ZM151.201 43.328C149.665 43.584 148.001 43.712 146.209 43.712C139.425 43.712 133.665 42.272 128.929 39.392C123.041 35.68 120.161 30.24 120.289 23.072H115.777V44H105.312V5.6H115.777V15.104H140.545V5.6H150.913L151.009 15.872C151.073 18.048 150.209 19.84 148.417 21.248C146.881 22.464 145.217 23.072 143.425 23.072H130.849C130.849 27.68 132.961 31.232 137.185 33.728C140.513 35.776 144.321 36.8 148.609 36.8C149.377 36.8 150.049 36.768 150.625 36.704L151.201 43.328ZM207.22 5.696L207.124 39.968C199.38 44.96 192.244 47.456 185.716 47.456C177.844 47.456 170.324 45.152 163.156 40.544V11.264C161.684 11.072 160.212 10.88 158.74 10.688C157.268 10.112 156.532 8.896 156.532 7.04V5.312L173.716 5.216L173.62 35.552C175.22 36.384 176.788 37.184 178.324 37.952C180.884 39.104 183.316 39.68 185.62 39.68C189.332 39.68 193.044 38.272 196.756 35.456V5.696H207.22ZM258.826 43.328C255.178 43.904 251.818 44.192 248.746 44.192C234.666 44.192 227.722 38.688 227.914 27.68H223.402V44H212.938V5.696H258.538L258.634 20.48C258.698 22.656 257.834 24.448 256.042 25.856C254.506 27.072 252.842 27.68 251.05 27.68H238.474C238.474 34.016 242.698 37.184 251.146 37.184C252.874 37.184 255.242 37.024 258.25 36.704L258.826 43.328ZM248.17 19.712V12.704H223.402V19.712H248.17ZM309.631 44L271.519 43.808C269.791 43.808 268.159 43.2 266.623 41.984C264.831 40.576 263.935 38.784 263.935 36.608L264.031 20.192H299.071C299.071 13.856 294.815 10.688 286.303 10.688C282.655 10.688 277.151 11.264 269.791 12.416L266.719 5.312C273.887 3.328 280.383 2.336 286.207 2.336C293.567 2.336 299.295 3.904 303.391 7.04C307.551 10.112 309.631 14.496 309.631 20.192V44ZM299.167 35.84V27.2H274.495V35.84H299.167ZM386.164 19.616C386.228 21.088 386.26 22.528 386.26 23.936C386.26 40.192 378.74 48.32 363.7 48.32C358.196 48.32 351.54 47.264 343.732 45.152L346.708 38.048C353.876 39.2 359.124 39.776 362.452 39.776C366.932 39.776 370.228 38.912 372.34 37.184C374.708 35.264 375.892 32.064 375.892 27.584L351.412 27.488C349.62 27.488 347.892 26.944 346.228 25.856C344.244 24.512 343.252 22.752 343.252 20.576V5.696H375.604V1.856L385.108 0.895997V12.608L353.716 12.704V19.616H386.164ZM441.22 5.696L441.124 39.968C433.38 44.96 426.244 47.456 419.716 47.456C411.844 47.456 404.324 45.152 397.156 40.544V11.264C395.684 11.072 394.212 10.88 392.74 10.688C391.268 10.112 390.532 8.896 390.532 7.04V5.312L407.716 5.216L407.62 35.552C409.22 36.384 410.788 37.184 412.324 37.952C414.884 39.104 417.316 39.68 419.62 39.68C423.332 39.68 427.044 38.272 430.756 35.456V5.696H441.22ZM489.946 19.616C490.01 21.088 490.042 22.528 490.042 23.936C490.042 40.192 482.522 48.32 467.482 48.32C461.978 48.32 455.322 47.264 447.514 45.152L450.49 38.048C457.658 39.2 462.906 39.776 466.234 39.776C470.714 39.776 474.01 38.912 476.122 37.184C478.49 35.264 479.674 32.064 479.674 27.584L455.194 27.488C453.402 27.488 451.674 26.944 450.01 25.856C448.026 24.512 447.034 22.752 447.034 20.576V5.696H479.386V1.856L488.89 0.895997V12.608L457.498 12.704V19.616H489.946ZM547.489 44H537.505V28.064C534.625 28.832 531.137 29.216 527.041 29.216C522.817 29.216 517.729 28.832 511.777 28.064V43.616L501.312 44.576V11.264C499.84 11.072 498.368 10.88 496.896 10.688C495.424 10.112 494.688 8.896 494.688 7.04V5.312H511.777V19.424C519.329 20.32 527.905 20.896 537.505 21.152V5.312H547.009L547.489 44ZM563.995 5.696V44H553.531V5.696H563.995Z" fill="black"/>
</g>
<defs>
<filter id="filter0_d_1_33" x="0.0960083" y="0.895996" width="563.899" height="52.424" filterUnits="userSpaceOnUse" color-interpolation-filters="sRGB">
<feFlood flood-opacity="0" result="BackgroundImageFix"/>
<feColorMatrix in="SourceAlpha" type="matrix" values="0 0 0 0 0 0 0 0 0 0 0 0 0 0 0 0 0 0 127 0" result="hardAlpha"/>
<feOffset dx="-5" dy="5"/>
<feComposite in2="hardAlpha" operator="out"/>
<feColorMatrix type="matrix" values="0 0 0 0 0.529167 0 0 0 0 0.114653 0 0 0 0 0.114653 0 0 0 1 0"/>
<feBlend mode="normal" in2="BackgroundImageFix" result="effect1_dropShadow_1_33"/>
<feBlend mode="normal" in="SourceGraphic" in2="effect1_dropShadow_1_33" result="shape"/>
</filter>
</defs>
</svg>
