<?xml version="1.0" encoding="utf-8"?>
<!-- Generator: Adobe Illustrator 28.0.0, SVG Export Plug-In . SVG Version: 6.00 Build 0)  -->
<svg version="1.1" id="Слой_1" xmlns="http://www.w3.org/2000/svg" xmlns:xlink="http://www.w3.org/1999/xlink" x="0px" y="0px"
	 viewBox="0 0 1920 1080" style="enable-background:new 0 0 1920 1080;" xml:space="preserve" preserveAspectRatio="none">
<style type="text/css">
	.st0{display:none;fill:#FFFFFF;}
	.st1{display:none;fill:url(#SVGID_1_);}
	.st2{display:none;}
	.st3{display:inline;}
	.st4{fill:url(#SVGID_00000053547606521153716630000004105279411760456084_);}
	.st5{fill:url(#SVGID_00000000904810328881972440000006320337007367703985_);}
	.st6{fill:url(#SVGID_00000117675168225122296610000012182412952882521744_);}
	.st7{fill:url(#SVGID_00000034073055917206311780000005794445772489564801_);}
	.st8{fill:url(#SVGID_00000052811675127089980570000005833858194285644694_);}
	.st9{display:none;opacity:0.3;fill:#EDC0BB;enable-background:new    ;}
	.st10{fill:#EC8993;}
	.st11{fill:url(#SVGID_00000111173440126354815560000002876181510510570651_);}
	.st12{fill:#6D3457;}
	.st13{fill:url(#SVGID_00000146474454642882366330000010078273152362658960_);}
	.st14{fill:url(#SVGID_00000110450531818903467330000012201677348810830264_);}
	.st15{fill:#EA5471;}
	.st16{fill:url(#SVGID_00000120545202394371904750000015906763638524603045_);}
	.st17{fill:url(#SVGID_00000135680626954962096900000008190989133792753835_);}
	.st18{fill:#FAB4B8;}
	.st19{fill:url(#SVGID_00000077316963681381466380000012424870131366495407_);}
	.st20{fill:#E04A68;}
	.st21{fill:#664567;}
	.st22{fill:url(#SVGID_00000170977449284984576440000009912770160711168664_);}
	.st23{fill:url(#SVGID_00000168797626035729828290000014467365160296508555_);}
	.st24{fill:url(#SVGID_00000034770850603219276800000017317623397488245150_);}
	.st25{fill:url(#SVGID_00000096772202356038089410000000281670852952394425_);}
	.st26{fill:url(#SVGID_00000127015175183134216730000008585883329971931027_);}
	.st27{fill:url(#SVGID_00000091016454735283659270000014756440244796491401_);}
	.st28{fill:url(#SVGID_00000065795390760526544470000001303625411430248328_);}
	.st29{fill:url(#SVGID_00000129177278038687434500000008795893260642401705_);}
	.st30{fill:url(#SVGID_00000134967778729266257350000009304646362283138690_);}
	.st31{fill:url(#SVGID_00000035530750113461788180000009585081202781779131_);}
	.st32{fill:url(#SVGID_00000171687756617162777590000000351732725270482101_);}
	.st33{fill:url(#SVGID_00000095312402624693112630000005547892588541238936_);}
	.st34{fill:url(#SVGID_00000018209228782941634160000008346541648245611149_);}
</style>
<g>
	<g id="OBJECTS_00000154402766006044838120000007531303490253454254_">
		<g>
			<rect x="1.4" y="2.6" class="st0" width="1683.2" height="1074.8"/>
			<g>
				<g>
					<g>
						
							<linearGradient id="SVGID_1_" gradientUnits="userSpaceOnUse" x1="63.6795" y1="1552.4259" x2="-300.9029" y2="2289.1848" gradientTransform="matrix(1 0 0 -1 539.04 2402.3401)">
							<stop  offset="0" style="stop-color:#FFEBC7"/>
							<stop  offset="0.73" style="stop-color:#FCDCD2"/>
						</linearGradient>
						<path class="st1" d="M1425,1077.4H1.4V82.9c69-16.2,140.9-20.1,210.3-6.7c89.7,17.2,174.8,64.4,230.1,137.1
							c19.3,25.3,34.9,53.5,56.3,77.1c66.4,73.1,173.4,88.5,271.3,101.4c18,2.4,36.2,5,54.5,8.2c75.4,13.2,150.5,36,200.2,90.3
							c3.8,4.2,7.5,8.5,11,13.1c39.1,50.7,50.6,116.5,66.6,178.5c11.4,44,26.2,88.2,49.4,126.8c1.2,2,2.5,4.1,3.8,6.1
							c3.2,5,6.5,10,10,14.8c7.3,10.1,15.4,19.8,24.3,28.7c58.7,58.9,147,83.6,199.5,148C1405.7,1027.1,1418,1051.5,1425,1077.4
							L1425,1077.4z"/>
						<g class="st2">
							<g class="st3">
								
									<linearGradient id="SVGID_00000059994065538116784670000005146115053824362915_" gradientUnits="userSpaceOnUse" x1="133.8768" y1="1890.7269" x2="250.9932" y2="1741.5049" gradientTransform="matrix(1 0 0 -1 539.04 2402.3401)">
									<stop  offset="0.15" style="stop-color:#EC8391"/>
									<stop  offset="0.67" style="stop-color:#DE5F71"/>
								</linearGradient>
								<path style="fill:url(#SVGID_00000059994065538116784670000005146115053824362915_);" d="M1164.9,829.6
									c-3.5-4.8-6.9-9.7-10-14.8c-1.3-2-2.6-4.1-3.8-6.1c-23.2-38.7-38-82.9-49.4-126.8c-16-62-27.5-127.8-66.6-178.5
									c-3.5-4.5-7.2-8.9-11-13.1C974.3,436,899.3,413.2,823.9,400c-0.6,1.8,0,4.5,1.4,5.8c-3-1.6-7.2,0.2-8.2,3.4
									c-0.3,1-0.3,2.2-0.8,3.1c-1.2,2.4-5,3.6-4.5,6.2c0.4,2,2.9,2.4,4.6,3.3c2.7,1.3,4.3,4.4,4,7.3c0,0-0.1-0.1-0.1-0.1
									c0-0.1,0-0.1,0-0.2c-0.1-0.4-0.5-0.6-0.9-0.7l-0.2-0.2c-0.3-0.1-0.6-0.1-0.9-0.1c-0.3-0.1-0.7-0.2-1-0.3
									c-0.6-0.3-0.9-1.1-1.3-1.7c-1.4-2.6-4.7-3.9-7.5-3.1c-1.5,0.4-3.4,1.3-4.5,0.1c-0.6-0.7-0.5-1.6-0.9-2.4
									c-0.6-1.4-2.4-2.1-3.9-1.9c-1.6,0.2-2.9,1-4.3,1.9c0.4-2.6-2.2-5.2-4.8-4.8c-1.1,0.2-2.3,0.8-3.4,0.4
									c-1.5-0.7-1.6-3-2.9-3.9c-1.2-0.8-3,0-4,1.1c-1,1.1-1.7,2.6-3,3.4c-1.2,0.9-3.4,0.8-3.9-0.7c-0.2-0.5-0.1-1-0.3-1.4
									c-0.7-1.5-3-0.6-4.1,0.6c-1.1,1.2-2.6,2.8-4.1,2c-0.6-0.3-0.9-0.8-1.4-1.3c-2-1.9-6-0.6-6.4,2.1c-0.2,0.9,0,1.9-0.6,2.7
									c-0.9,1.2-2.8,0.8-3.9-0.2c-1.1-1-1.8-2.4-3-3.2c-2.6-1.7-6.1-0.1-8.2,2.2c-2.1,2.2-3.5,5.1-6.1,6.8
									c-0.6,0.4-1.2,0.7-1.6,1.3c-1.1,1.4-0.1,3.5,1.2,4.8c1.2,1.3,3.6,2.6,3.5,4.4c-0.1,2.4-2.2,4.2-4.3,5.3
									c-2.1,1.2-4.4,2-6,3.8c-1.6,1.8-1.8,5,0.2,6.3c1.8,1.1,4.6,0.4,5.6,2.1c1.1,1.8-0.8,3.9-2.7,4.7c-1.9,0.8-4.3,1.3-5.1,3.2
									c2.3,0.7,3.2,4.2,1.4,6c-1.1,1.1-3,1.8-2.9,3.3c0.2,2.4,5.2,2.1,5.1,4.5c0,0.7-0.6,1.3-0.8,2c-0.9,2.8,3.5,4.5,4,7.3
									c0.7,3.8-5.5,5.9-5.4,9.7c0.1,3.2,4.4,4.3,7.6,4.4c-0.5,0.7-1,1.4-1.4,2.2c-4.1,1.3-9.4,0-11.7,3.5c-0.9,1.3-1,3-1.5,4.5
									c-0.5,1.5-1.6,3.1-3.2,3.1c-1.6-3.2-3.3-6.4-5-9.6c-0.3-0.6-0.7-1.3-1.2-1.7c-1.9-1.4-4.4,0.3-6.3,1.7
									c-1.9,1.4-5.2,2.1-6-0.1c-0.4-1.3,0.5-2.6,0.6-4c0.1-2.4-3.1-4.1-5.1-2.7c1.1-1.9-1.5-4.2-3.7-3.7c-2.2,0.5-3.5,2.6-4.7,4.5
									c-2.4-2.5-6.8-1.8-9.4,0.5c-2.6,2.3-3.2,5.1-4.3,8.4c-3.2,1-5.8,4-6.3,7.3c2.5-0.5,5,2,4.6,4.5c-0.5,2.5-3.8,3.9-5.9,2.5
									c-1.3-0.9-2.1-2.5-3.6-2.8c-4.1-0.8-4.5,8.4-8.6,7.6c-1.6-0.3-2.7-2.3-4.3-2.2c-2.4,0.2-3.7,5-5.7,3.6
									c-0.5-0.3-0.7-0.9-1.1-1.2c-1.6-1.7-4.6,0.5-4.5,2.8c0.1,2.3,2,4.1,3.7,5.6c-2.4,0.5-5.6,2.2-4.8,4.6c0.3,0.8,1,1.4,1.2,2.3
									c0.3,1.6-1.7,2.7-3.3,2.6c-1.6-0.1-3.2-0.8-4.8-0.5c-2.1,0.4-3.5,2.7-3,4.7c0.4,1.4,1.4,3.3,0.2,4.1c-1,0.7-2.3-0.3-3.5-0.4
									c-2-0.1-3.1,2.1-3.9,3.9c-0.8,1.8-2.4,3.9-4.3,3.2c-0.7-0.3-1.3-1-2.1-1.2c-1.8-0.6-3.3,1.8-3.3,3.7
									c-0.1,1.9,0.5,4.1-0.7,5.6c-0.9-0.3-1.7-0.6-2.5-0.9c-3.3,0.3-7.4,1.1-8.2,4.4c-0.3,1.3,0.1,2.7,0,4c-0.1,1.3-0.8,2.9-2.2,3
									c-0.9,0.1-1.6-0.5-2.4-0.8c-3.6-1.4-7.1,2-9.4,5.1c-0.5,0.7-1,1.4-1,2.3c-0.1,3.1,4.9,3.2,6.6,5.7c-2,0.7-2.3,4.1-0.4,5.1
									c0.8,0.4,1.7,0.5,2.6,0.7c2.9,0.9,3.9,5.8,1.1,7c-1.5,0.7-3.3,0.1-5-0.2c-2.7-0.4-5.7,0.5-7.2,2.7c-1.5,2.2-1.1,5.8,1.2,7.1
									c1.1,0.6,2.6,1,2.7,2.3c0.1,1.6-2.5,1.8-3.7,2.9c-1.3,1.3-0.5,3.6,0.9,4.6c1.5,1,3.3,1.3,5,1.9c1.7,0.6,3.4,1.8,3.6,3.6
									c0.1,0.7-0.1,1.5,0,2.3c0.3,1.6,2,2.4,2.9,3.7c1.3,1.5,1.5,3.6,2.1,5.5c0.6,1.9,2.7,3.7,4.7,4c-3.3,0.5-5.6,4.5-4.4,7.7
									c0.4,1,1,1.9,1.2,2.9c0.5,2.6-1.8,5.9,0.2,7.7c1.5,1.3,3.7,0.2,5.7-0.2c2.9-0.6,6.1,0.9,7.6,3.4c-0.6-0.1-1.1-0.1-1.7-0.2
									c-1.2,0.4-1.5,1.7-1.1,2.9c-2.7-1.6-6.7,0.6-9.2,2.6c-2.1-0.7-3.6-2.6-5.7-3.5c-2.1-0.9-4.7-0.5-6.5,0.9
									c-1.2,1-2.4,2.6-3.9,2.5c-1.2-0.1-2.2-1.2-3.2-1.9c-1.6-1.1-3.7-1.4-5.5-0.6c-0.8,0.3-1.4,0.8-1.8,1.5
									c-0.7,1.2-0.4,2.6,0.1,3.9c0.5,1.2,1.1,2.7,1.5,4c-0.7,0-1.5,0-2.2,0.1c0.7-2.6-2.9-5-5-3.4c-0.7,0.5-1.2,1.3-2,1.7
									c-1.2,0.5-2.8-0.3-4,0.4c-1.2,0.7-1.3,2.4-1.4,3.8c-0.1,1.4-0.8,3.1-2.2,3c-1.8-0.2-2.2-3.2-4-3.3c-0.7,0-1.2,0.4-1.7,0.8
									c-2.5,2-5.2,4.6-4.6,7.7c0.2,0.9,0.7,1.9,0.5,2.8c-0.5,2-3.6,1.6-5.3,0.5c-1.7-1.2-3.8-2.8-5.6-1.8
									c-1.4,0.7-1.7,2.5-2.1,4.1c-0.4,1.5-1.5,3.3-3,3.1c-1.1-0.1-2.1-1.2-3.1-0.9c-1.2,0.4-1.2,2.1-1.8,3.3
									c-0.7,1.2-2.2,1.8-3.4,2.5c-1.2,0.7-2.4,2.2-1.7,3.5c0.6,1.1,2.3,1.5,2.3,2.7c0,1-1,1.5-1.8,2.2c-1.7,1.5-1.9,4.1-1.4,6.3
									c0.5,2.2,1.5,4.3,1.8,6.5c0.1,0.7,0.1,1.4-0.2,2c-0.7,1.2-2.3,1.4-3.6,2c-2.8,1.2-4.3,4.4-4.4,7.4c-0.1,3,1,6,2.2,8.8
									c0.7,1.9,2,4.1,4,3.9c2-0.2,3.9-2.9,5.5-1.6c0.7,0.5,0.8,1.4,0.9,2.2c0.2,2.4,0.2,5.4-1.9,6.6c-1,0.6-2.4,0.6-3.4,1.3
									c-1.4,1-1.4,3.3-0.3,4.6c1,1.4,2.7,2.2,4.3,2.7c-1.6,1.6-3.2,3.3-3.8,5.5s0.1,4.9,2.1,5.8c1.9,0.9,4.4-0.1,6.1,1
									c1.2,0.7,1.7,2.2,2.2,3.5c1.9,5,5,9.5,9,13.1c1.1,1,2.4,2,3.1,3.4c0.7,1.4,0.8,3.2-0.3,4.3c1.7-0.3,1,2.8,2,4.1
									c0.8,1.1,2.6,0.7,3.7-0.1c1.1-0.8,2-2,3.3-2.2c2.2-0.4,4.1,2,4,4.2c-0.1,2.2-1.5,4.2-2.8,6c0.3,0.7,0.9,1.2,1.6,1.6
									c-2.9,8.2-4.3,12.8-4.3,12.8L1164.9,829.6L1164.9,829.6z M615.7,667.7c0.7-0.2,1.4-0.5,2-0.2c0.3,0.1,0.6,0.4,0.7,0.7
									c-0.9,1.7-1.8,3.3-2.7,5c-2.3-1.1-4.6-2.4-6.2-4.4C611.5,669.4,613.6,668.5,615.7,667.7L615.7,667.7z"/>
								
									<linearGradient id="SVGID_00000179624898780327299070000003328096477038587782_" gradientUnits="userSpaceOnUse" x1="287.3594" y1="1786.6544" x2="689.7432" y2="1508.953" gradientTransform="matrix(1 0 0 -1 539.04 2402.3401)">
									<stop  offset="3.000000e-02" style="stop-color:#ECA1A6"/>
									<stop  offset="0.83" style="stop-color:#E3727D"/>
								</linearGradient>
								<path style="fill:url(#SVGID_00000179624898780327299070000003328096477038587782_);" d="M1151.1,808.7
									c-23.2-38.7-38-82.9-49.4-126.8c-16-62-27.5-127.8-66.6-178.5c-3.5-4.5-7.2-8.9-11-13.1c0,0-0.1,0.1-0.1,0.1
									c-0.1,0-0.1-0.1-0.1-0.1c-3.5-1.6-7.8,3.4-11,1.4c-2.5-1.5-2.4-6.3-5.3-6.5c-0.7-0.1-1.5,0.3-2.2,0
									c-2.3-0.8-0.1-5.3-2.3-6.4c-1.4-0.7-2.7,0.8-4.2,1.4c-2.3,1-5.2-1.1-5-3.6c-2.1,0.1-3.4,2.1-4.8,3.6
									c-1.4,1.5-4.1,2.5-5.4,0.8c-1.2-1.6,0.5-4,0.1-6c-0.4-2.4-3.5-3.3-5.8-2.5c-2.3,0.8-3.9,2.7-5.8,4.2c-1.8,1.5-4.3,2.8-6.5,2
									c-1.7-0.6-2.1-3.2-2.8-4.9c-0.7-1.6-2.3-3.3-4-2.8c-0.7,0.2-1.2,0.7-1.8,1c-2.5,1.8-5.7,2-8.6,3.1c-2.9,1.1-5.7,3.8-5,6.8
									c0.3,1.4,1.3,2.6,1.9,4c0.5,1.4,0.2,3.3-1.2,3.7c-0.9,0.2-1.8-0.3-2.7-0.5c-2.7-0.6-5.4,2.6-4.3,5.2
									c0.2,0.6,0.6,1.1,0.7,1.8c0.1,1.6-1.9,2.5-3.5,3c-1.5,0.6-3.2,2.4-2.1,3.6c0.3,0.4,0.8,0.5,1.2,0.9c1.1,1,0.5,3-0.8,3.8
									c-1.2,0.9-2.8,1-4.3,1.5c-1.4,0.5-2.8,1.8-2.5,3.3c0.3,1.6,2.5,2.5,2.5,4.2c0,1.2-1,2-1.6,3c-1.3,2.3,0.1,5.7,2.7,6.2
									c-1.3,0.9-2.6,1.9-3.3,3.3c-0.7,1.4-0.8,3.3,0.3,4.4c0.6,0.6,1.5,0.9,1.9,1.7c0.7,1.4-0.8,2.8-1.8,4.1
									c-1.7,2.2-1.7,5.5-0.2,7.8c-1.5-1.2-3.1-2.4-4.8-3.3c-1.2-0.7-2.6-1.4-3.1-2.7c-0.9-1.9,0.4-4.2-0.2-6.2
									c-0.6-2.2-3.2-3.2-5.4-2.9c-2.2,0.3-4.2,1.6-6,2.9c-0.3-1.7-0.8-3.5-2-4.6c-1.2-1.2-3.5-1.6-4.7-0.3c-0.9,0.9-1,2.2-1.8,3.2
									c-1.5,1.9-4.4,1.5-6.8,1c-0.8-0.2-1.7-0.5-2.1-1.2c-0.9-1.8,1.9-3.3,2.4-5.2c0.5-2-1.6-3.5-3.3-4.5c-2.7-1.5-5.4-3-8.4-3.4
									c-3-0.4-6.4,0.7-8,3.3c-0.7,1.2-1.2,2.8-2.5,3.3c-0.7,0.2-1.4,0.1-2-0.1c-2.2-0.6-4.1-1.9-6.2-2.7c-2.1-0.8-4.7-1-6.4,0.5
									c-0.7,0.7-1.4,1.6-2.4,1.5c-1.2-0.2-1.4-2-2.4-2.7c-1.2-0.9-2.8,0.1-3.7,1.2c-0.9,1.1-1.6,2.5-2.9,3c-1.2,0.4-3,0.1-3.5,1.3
									c-0.5,1,0.5,2.1,0.5,3.2c-0.1,1.6-1.9,2.4-3.5,2.6c-1.6,0.2-3.4,0.2-4.3,1.5c-1.2,1.7,0.1,4,1,5.8c0.9,1.9,0.9,5-1.2,5.2
									c-1,0.1-1.8-0.5-2.7-0.8c-3-1-6,1.3-8.3,3.4c-0.5,0.4-1,0.9-1,1.6c-0.2,1.8,2.7,2.6,2.6,4.4c-0.1,1.4-1.9,1.9-3.3,1.8
									c-1.4-0.1-3.1-0.3-4,0.8c-0.8,1.1-0.3,2.8-1,3.9c-0.4,0.8-1.3,1.2-1.9,1.8c-1.8,1.9,0.1,5.8,2.7,5.5
									c-0.1,0.7-0.3,1.4-0.4,2.2c-1.2-0.5-2.6-1.3-3.7-2c-1.1-0.7-2.6-1.1-3.8-0.7c-0.8,0.3-1.4,0.9-1.8,1.6
									c-1,1.6-1.1,3.9-0.2,5.6c0.6,1.1,1.5,2.1,1.4,3.4c-0.1,1.6-1.9,2.5-3.1,3.5c-1.7,1.6-2.5,4.1-1.8,6.3
									c0.6,2.2,2.3,3.9,2.7,6.1c-2.5,2.2-5.4,6.2-3.8,9.1c0.5,0.8,1.1,1.4,1.8,2c2.3,2.5,3.3,5.8,4.2,9.1c0.1,0.4,0.2,0.8,0.1,1.2
									c-0.2,0.8-1.3,1.1-1.6,1.9c-0.2,0.6,0.1,1.2,0.4,1.7c0.7,1.1,1.3,2.3,2,3.5c-1.4-0.8-3.4-0.8-4.2,0.6
									c-0.9,1.4-0.4,3.9-2,4.3c-1.2,0.2-2-1.2-2.8-2.1c-1.8-2-5.4-1.6-7.2,0.5c-1.8,2-2,5.2-1,7.7c0.6,1.6,1.7,3.1,1.4,4.8
									c-0.5,3-5.5,3.3-7.1,0.6c-0.5-0.8-0.7-1.7-1.3-2.4c-1.4-1.6-4.6-0.5-4.8,1.6c-2.9-1.1-4.2-5.9-7.1-5c-0.8,0.2-1.4,0.9-2,1.6
									c-2.5,2.9-5,7.2-2.7,10.3c0.5,0.7,1.2,1.3,1.3,2.1c0.2,1.3-1.1,2.4-2.4,2.8c-1.3,0.4-2.7,0.3-3.9,0.9c-3,1.5-2.9,5.7-2.3,9
									c0.5,0.7,1,1.5,1.4,2.2c-1.2,1.5-3.5,1.5-5.3,2c-1.9,0.5-3.8,2.5-2.8,4.1c0.4,0.7,1.2,1,1.7,1.7c1.1,1.6-0.5,3.7-2.1,4.9
									c-1.6,1.2-3.5,2.8-2.9,4.7c0.3,1.2,1.6,2.2,1.2,3.3c-0.5,1.4-2.6,0.8-4,0.8c-2.1,0-4,2-3.9,4.1c0.1,1.6,1.2,3,1.7,4.5
									c0.5,1.6-0.1,3.7-1.7,3.9c-0.9,0.1-1.6-0.5-2.5-0.6c-2.5-0.3-3.4,3.2-3.3,5.7c-1.9-1.3-4.1-2.7-6.3-2.3
									c-2.3,0.4-3.7,3.9-1.7,5.1c0.5,0.3,1,0.4,1.4,0.7c1.8,1.7-2.5,4-2.1,6.4c0.2,1.6,2.4,2.2,3.1,3.7c1.8,3.8-7.1,6.3-5.4,10.1
									c0.6,1.4,2.4,1.8,3.5,2.9c1.9,1.7,1.3,5.3-1,6.3c-2.3,1.1-5.4-0.8-5.5-3.3c-3.1,1.3-5.4,4.4-5.6,7.8
									c-2.9,1.8-5.4,3.1-7.1,6.2c-1.6,3.1-1.3,7.5,1.7,9.2c-1.6,1.6-3.2,3.4-3.2,5.6s2.9,4.3,4.4,2.7c-0.9,2.2,1.5,5,3.8,4.3
									c1.3-0.4,2.4-1.6,3.7-1.5c2.3,0.2,2.4,3.6,1.5,5.8c-0.9,2.2-2,5-0.2,6.5c0.5,0.5,1.3,0.6,2,0.8c3.5,0.8,7,1.7,10.5,2.5
									c0.3,1.6-0.9,3-2.3,3.9c-1.4,0.8-3,1.3-4.1,2.5c-3.1,3.4,0.3,9-0.8,13.5c-0.5,2.2-1.8,5,0.2,6c0.6,0.3,1.3,0.3,1.9,0.5
									c3.1,1,2.7,6.6,5.9,7.3c0.4-0.2,0.7-0.5,1.1-0.7c28.6,0.1,336.6,1,417.3,0.4C1153.6,812.8,1152.3,810.8,1151.1,808.7
									L1151.1,808.7z M813.2,629.5c0,0-0.1,0.1-0.1,0.2c-0.5-0.4-0.9-0.9-1.2-1.4c-0.6-0.9-1.1-1.9-1.7-2.9c0.7,0.1,1.4-0.3,2-0.1
									C813.9,625.6,813.9,628,813.2,629.5L813.2,629.5z"/>
							</g>
							<g class="st3">
								
									<linearGradient id="SVGID_00000119801053811627584700000004295896108699816850_" gradientUnits="userSpaceOnUse" x1="-308.8627" y1="2011.9504" x2="-388.206" y2="1862.7001" gradientTransform="matrix(1 0 0 -1 539.04 2402.3401)">
									<stop  offset="0.15" style="stop-color:#EC8391"/>
									<stop  offset="0.67" style="stop-color:#DE5F71"/>
								</linearGradient>
								<path style="fill:url(#SVGID_00000119801053811627584700000004295896108699816850_);" d="M395.5,642.1
									c-1.4,2.7-5.8,0.3-8.5,1.6c1.4,1.6-0.1,4.7-2.2,4.6c-0.9,0-1.7-0.5-2.6-0.7c-2-0.5-4.1,1-4.8,2.8c-0.3,0.9-0.3,1.9,0.3,2.7
									c0.3,0.5,0.7,0.8,1.2,1.1c1,0.6,2.2,0.9,3.2,1.3c2.5,1,4.6,3.3,4.8,6c0.1,1.4-0.5,2.9-1.4,4c-0.9,0.9-2,1.5-3.2,1.5
									s-2.8-0.4-3.4,0.6c-0.9,1.4,1.2,2.8,1.7,4.4c0.5,1.7-1.4,3.3-3.2,3.5c-1.8,0.2-3.5-0.5-5.3-0.9c-1.8-0.3-3.9-0.2-5,1.2
									c-0.5,0.6-0.7,1.4-1.2,2c-1,1.2-2.9,1.1-4.4,1.6c-1.8,0.7-3.1,2.4-4.6,3.7c-1.4,1.4-4.2,1.8-6,1.1c2.6,2.1,2.6,6.7,0,8.8
									c-0.9,0.7-1.8,1.1-2.6,1.9c-1.8,2-1.4,6-4.1,6.5c-1.9,0.4-3.3-1.7-4.8-3c-2.2-2-5.7-2.3-8.3-0.9l1.5,0.7
									c1.5,1.7-1,4.5-3.2,4.1c-2.3-0.4-3.8-2.4-5.2-4.2c-0.5-0.5-1-1.1-1.6-1.2c-1.2-0.2-2.1,1.2-2.1,2.5c0,1.2,0.5,2.4,0.3,3.7
									c-0.3,2.7-3,4.2-5.4,5.4c-3,1.4-7.4,2.4-9-0.5c-0.4-0.7-0.5-1.5-0.6-2.3l-0.9-7.5c-0.1-0.8-0.2-1.7-0.9-2.2
									c-0.8-0.7-2-0.5-3.1-0.7c-2.3-0.4-3.6-3-3.5-5.3c0.1-2.3,1.2-4.4,2.4-6.4c-4.5-0.4-8-5-7.9-9.5c0.1-4.6,3.3-8.7,7.3-10.8
									c-0.2-2.2-0.4-4.5-1-6.7c-71.1-19-210.8-56.6-296.9-80.7V433.8c-0.4-1.3-2.2-2.4-2.5-3.9c-0.4-1.7,1-3.1,2.5-4.1V253.7
									c1,1.2,2.6,2.3,4.1,1.7c0.3-3.6,0.7-7.2,1-10.8c0.1-0.7,0.1-1.5,0.5-2.1c1.2-2,4.2-1.3,6.5-0.7c2.3,0.6,5.6,0,5.5-2.3
									c-0.1-1.4-1.4-2.3-2-3.5c-1-2.2,1.4-5,3.7-4.4c-1.8-1.4-0.1-4.5,2-4.8s4.2,1.1,6,2.4c1.3-3.2,5.6-4.2,8.9-3
									c3.2,1.2,4.9,3.5,7.1,6.1c3.4-0.2,6.8,1.6,8.6,4.5c-2.5,0.5-3.9,3.8-2.6,5.9c1.4,2.1,5,2.2,6.4,0.1c0.9-1.3,1-3.1,2.3-3.9
									c3.5-2.2,7.3,6.1,10.8,3.9c1.4-0.9,1.6-3.1,3.2-3.6c2.3-0.7,5.2,3.2,6.7,1.2c0.3-0.5,0.3-1,0.5-1.5c0.9-2.1,4.5-1.2,5.3,1
									c0.7,2.2-0.3,4.5-1.4,6.6c2.5-0.4,6-0.1,6.1,2.4c0,0.9-0.4,1.7-0.3,2.6c0.3,1.6,2.6,1.8,4.1,1.2c1.5-0.7,2.7-2,4.3-2.3
									c2.1-0.4,4.3,1.2,4.6,3.3c0.2,1.5-0.1,3.5,1.3,3.9c1.2,0.3,2-1.1,3.1-1.6c1.8-0.9,3.7,0.8,5.1,2.2c1.4,1.4,3.7,2.7,5.1,1.4
									c0.6-0.6,0.9-1.4,1.5-1.9c1.5-1.2,3.7,0.4,4.5,2.2c0.7,1.8,1.1,4,2.7,5c0.7-0.6,1.4-1.2,2-1.8c3.2-1,7.3-1.7,9.2,1
									c0.8,1.1,0.9,2.5,1.5,3.8c0.5,1.2,1.8,2.4,3.1,2c0.8-0.3,1.3-1,1.9-1.6c2.8-2.6,7.4-0.8,10.6,1.2c0.7,0.5,1.4,1,1.8,1.7
									c1.2,2.8-3.3,4.8-4,7.7c2.1-0.1,3.7,2.9,2.3,4.6c-0.6,0.7-1.4,1-2.2,1.6c-2.4,1.9-1.5,6.8,1.6,6.9c1.7,0.1,3.1-1.2,4.6-2
									c2.4-1.3,5.4-1.6,7.7-0.1c2.3,1.5,3.2,5,1.5,7.1c-0.8,1-2,1.9-1.6,3.1c0.6,1.6,3,0.7,4.5,1.4c1.7,0.7,1.8,3.1,0.9,4.6
									c-0.9,1.5-2.6,2.5-3.9,3.6c-1.4,1.2-2.6,2.9-2.1,4.7c0.2,0.7,0.7,1.4,0.9,2.1c0.3,1.6-0.9,3-1.4,4.5
									c-0.6,1.9-0.1,3.9,0.1,5.9c0.2,2-1.2,4.5-2.9,5.4c2.2-0.5,4.5,0.6,5.9,2.4c1,0.6,2,1,2.9,0.4c0.7-0.5,0.9-1.4,1.4-2.2
									c0.9-1.2,2.8-1.5,4.3-0.9c1.4,0.5,2.6,1.7,3.7,2.8c0.2-2.6,3.4-4.5,5.8-3.5c1,0.4,2.1,1.3,3.2,1.1c1.6-0.3,2.2-2.5,3.8-3.1
									c1.4-0.5,2.9,0.7,3.6,2c0.7,1.3,1.1,2.9,2.1,4c1,1.1,3.1,1.5,3.9,0.3c0.3-0.4,0.3-0.9,0.7-1.3c1-1.3,3.1,0.1,3.9,1.5
									c0.8,1.4,1.9,3.3,3.5,3c0.6-0.1,1.1-0.6,1.6-0.9c2.4-1.4,6,0.8,5.8,3.5c-0.1,0.9-0.5,1.9-0.1,2.7c0.6,1.4,2.6,1.4,3.9,0.7
									c1.3-0.7,2.3-1.9,3.7-2.4c2.9-1.1,5.9,1.3,7.4,4c1.5,2.7,2.3,5.8,4.3,8.1c0.5,0.5,1,1,1.3,1.6c0.7,1.6-0.7,3.5-2.2,4.4
									s-4.1,1.7-4.4,3.4c-0.4,2.4,1.2,4.6,2.9,6.2c1.8,1.6,3.8,3,4.9,5.1c1.1,2.1,0.6,5.3-1.6,6.1c-2,0.7-4.5-0.7-6,0.7
									c-1.4,1.4-0.1,4,1.6,5.2c1.6,1.2,3.8,2.3,4.2,4.3c-2.4,0.2-4.1,3.4-2.8,5.5c0.8,1.3,2.5,2.5,2,3.9c-0.8,2.3-5.5,0.8-6,3.2
									c-0.1,0.7,0.3,1.4,0.3,2.1c0,0.4-0.1,0.8-0.2,1.1c0.8,0.8,1.5,1.6,2.3,2.4c-0.2-0.5-0.3-1-0.2-1.4c0.1-0.5,0.6-0.9,1-1.2
									c1.3-1,2.6-2,3.8-3c0.5-0.4,1-0.8,1.7-0.7c0.8,0.2,1.2,1.2,2.1,1.3c0.4,0.1,0.8-0.1,1.1-0.3c3.1-1.4,6.3-2.9,8.4-5.5
									c0.6-0.7,1-1.5,1.8-2c2.6-2.1,6.9,0.3,9.5,2.4c2.1-0.7,3.6-2.6,5.6-3.5c2.1-0.9,4.7-0.6,6.5,0.9c1.2,1,2.3,2.7,3.9,2.6
									c1.2-0.1,2.2-1.2,3.2-1.9c1.6-1.1,3.8-1.4,5.5-0.6c0.8,0.3,1.4,0.9,1.8,1.5c0.7,1.2,0.4,2.7-0.1,3.9c-0.5,1.2-1.1,2.7-1.5,4
									c0.7,0,1.5,0,2.2,0.1c-0.7-2.6,2.9-5,5-3.4c0.7,0.5,1.2,1.3,2,1.6c1.3,0.5,2.8-0.3,4,0.4c1.2,0.7,1.3,2.4,1.4,3.8
									c0.1,1.4,0.8,3.2,2.2,3.1c1.8-0.2,2.2-3.2,4-3.3c0.7,0,1.2,0.4,1.7,0.8c2.5,2,5.2,4.6,4.6,7.7c-0.2,0.9-0.7,1.9-0.5,2.8
									c0.5,2,3.6,1.6,5.3,0.5c1.7-1.2,3.8-2.8,5.6-1.9c1.4,0.7,1.7,2.6,2.1,4.1c0.4,1.5,1.4,3.3,3,3.1c1.1-0.1,2.1-1.2,3.1-0.9
									c1.2,0.4,1.2,2.2,1.8,3.3c0.7,1.3,2.2,1.8,3.4,2.5c1.2,0.7,2.4,2.2,1.7,3.5c-0.6,1.1-2.3,1.5-2.3,2.7c0,1,1,1.6,1.8,2.2
									c1.7,1.5,1.9,4.1,1.4,6.3c-0.5,2.2-1.5,4.3-1.8,6.5c-0.1,0.7-0.1,1.4,0.2,2c0.7,1.2,2.3,1.4,3.6,2c2.8,1.1,4.3,4.4,4.4,7.4
									c0.1,3.1-1,6-2.2,8.8c-0.7,1.9-2,4.1-4,3.9c-2-0.2-3.9-2.8-5.5-1.6c-0.7,0.5-0.8,1.4-0.9,2.2c-0.2,2.4-0.2,5.4,1.9,6.6
									c1.1,0.6,2.4,0.6,3.4,1.3c1.4,1,1.4,3.3,0.3,4.7c-1,1.4-2.7,2.2-4.3,2.7c1.5,1.6,3.1,3.3,3.8,5.5c0.6,2.2-0.1,4.9-2.1,5.8
									c-1.9,0.9-4.4-0.1-6.1,1c-1.2,0.8-1.7,2.2-2.2,3.5c-0.3,0.8-0.7,1.6-1.1,2.4c0.3,0.7,0.6,1.3,0.9,1.9
									c0.9,2.2,3.5,4.4,5.2,2.9c1-0.9,0.9-2.5,1.5-3.7c1.1-2.1,4.8-2,5.8,0.2c0-2.2,3.5-2.9,5-1.3s1.8,4,1.8,6.2
									c3.3-0.9,6.7,1.9,7.8,5.2c1,3.3,0.3,6-0.5,9.4c2.3,2.5,3,6.3,1.7,9.5c-1.9-1.7-5.4-0.8-6.2,1.6c-0.8,2.4,1.4,5.3,3.9,5.1
									c1.5-0.1,3.1-1.1,4.5-0.6c3.9,1.4-0.3,9.5,3.6,10.9c1.6,0.5,3.5-0.6,4.8,0.3c2,1.4,0.7,6.1,3.1,6c0.5,0,1-0.4,1.5-0.5
									c2.2-0.6,3.7,2.8,2.5,4.8c-1.2,1.9-3.8,2.5-6,2.9c1.8,1.7,3.7,4.7,1.8,6.3c-0.7,0.6-1.6,0.7-2.2,1.4c-1,1.2,0.1,3.2,1.6,3.9
									c1.4,0.7,3.2,0.9,4.4,2c1.6,1.4,1.7,4.1,0.2,5.6c-1,1-2.9,2.1-2.3,3.4c0.5,1.1,2.2,0.9,3.2,1.4c1.8,0.9,1.6,3.4,1.4,5.4
									c-0.2,2,0.1,4.6,2.1,4.9c0.8,0.1,1.6-0.2,2.4-0.1c1.9,0.4,2,3.2,1,4.9c-0.9,1.7-2.5,3.3-2.3,5.2l2.6,0.5
									c2.7,1.9,5.8,4.7,4.8,7.9c-0.4,1.3-1.4,2.3-2,3.5c-0.7,1.2-0.8,2.9,0.4,3.7c0.7,0.5,1.6,0.4,2.4,0.5
									c3.8,0.6,5.1,5.3,5.5,9.2C395.8,640.4,395.9,641.3,395.5,642.1L395.5,642.1z"/>
								
									<linearGradient id="SVGID_00000094578618078073908300000003615426202753917331_" gradientUnits="userSpaceOnUse" x1="-300.9795" y1="1823.9257" x2="-537.1108" y2="1542.427" gradientTransform="matrix(1 0 0 -1 539.04 2402.3401)">
									<stop  offset="3.000000e-02" style="stop-color:#ECA1A6"/>
									<stop  offset="0.83" style="stop-color:#E3727D"/>
								</linearGradient>
								<path style="fill:url(#SVGID_00000094578618078073908300000003615426202753917331_);" d="M425.9,752.6
									c3-1.8,3.3-6.1,1.7-9.2c-1.6-3-4.2-4.3-7.1-6.2c-0.2-3.4-2.5-6.5-5.6-7.8c-0.1,2.5-3.2,4.4-5.5,3.3c-2.3-1-2.8-4.6-1-6.3
									c1.1-1,2.9-1.4,3.5-2.9c1.7-3.8-7.1-6.3-5.4-10.1c0.7-1.5,2.9-2,3.1-3.7c0.4-2.4-3.9-4.7-2.1-6.4c0.4-0.4,1-0.5,1.4-0.7
									c2-1.2,0.6-4.6-1.7-5.1s-4.4,1-6.3,2.3c0.1-2.5-0.8-6-3.3-5.7c-0.9,0.1-1.6,0.7-2.5,0.6c-1.6-0.1-2.2-2.3-1.7-3.9
									c0.5-1.5,1.6-2.9,1.7-4.5c0.1-2.1-1.8-4.1-3.9-4.1c-1.5,0-3.5,0.6-4-0.8c-0.5-1.1,0.8-2.2,1.2-3.3c0.6-1.9-1.3-3.5-2.9-4.7
									c-1.6-1.2-3.2-3.3-2.1-4.9c0.5-0.7,1.3-1,1.7-1.7c0.3-0.5,0.3-0.9,0.2-1.4c-0.3-1.2-1.7-2.4-3-2.7c-1.9-0.5-4.1-0.5-5.3-2
									c0.5-0.7,1-1.5,1.4-2.2c0.2-1.4,0.4-2.9,0.3-4.4c-0.1-1.5-0.5-2.9-1.5-3.8c-0.3-0.4-0.7-0.6-1.1-0.8
									c-1.2-0.6-2.6-0.6-3.9-0.9c-1.3-0.4-2.6-1.5-2.4-2.8c0.1-0.8,0.9-1.4,1.3-2.1c2.2-3.1-0.3-7.4-2.7-10.3
									c-0.6-0.7-1.2-1.3-2-1.6c-2.9-0.9-4.2,4-7.1,5c-0.2-2.1-3.4-3.2-4.8-1.6c-0.6,0.7-0.9,1.6-1.3,2.4c-1.6,2.7-6.5,2.4-7.1-0.6
									c-0.3-1.6,0.7-3.2,1.4-4.8c1-2.5,0.8-5.6-1-7.7c-1.8-2-5.4-2.4-7.2-0.5c-0.9,0.9-1.6,2.3-2.8,2.1c-1.6-0.3-1.1-2.9-2-4.3
									c-0.9-1.5-3.3-1.3-4.7-0.2c-1.4,1.1-2.1,2.9-3,4.4c-1,1.5-2.6,2.9-4.3,2.7c-0.8-0.1-1.5-0.5-2.2-0.5c-1.6-0.1-2.8,1.3-4.3,2
									c-1.5,0.7-3.2,0.7-4.8,0.7c-3.4-3.7-6.8-7.4-10.3-11c0.5,0,0.9,0,1.2-0.3c0.9-0.7-0.1-2.1,0.1-3.2c0.1-0.7,0.7-1.2,1.1-1.8
									c1.8-2.3,1.9-5.8,0.1-8.1c-1-1.3-2.5-2.7-1.8-4.1c0.4-0.8,1.3-1.1,1.9-1.7c1.1-1.1,1-3,0.3-4.4c-0.8-1.4-2-2.3-3.3-3.3
									c2.6-0.6,4-4,2.7-6.2c-0.6-1-1.6-1.8-1.6-3c0.1-1.7,2.2-2.6,2.5-4.2c0.3-1.5-1.1-2.8-2.5-3.3c-1.4-0.5-3-0.7-4.3-1.5
									c-1.2-0.8-2-2.8-0.8-3.8c0.3-0.3,0.9-0.5,1.2-0.9c1.1-1.2-0.5-3-2.1-3.6c-1.5-0.6-3.5-1.4-3.4-3c0.1-0.7,0.5-1.2,0.7-1.8
									c1-2.6-1.6-5.8-4.3-5.2c-0.9,0.2-1.8,0.7-2.7,0.5c-1.4-0.3-1.8-2.3-1.2-3.7c0.5-1.4,1.6-2.6,1.9-4c0.7-3-2.2-5.7-5-6.8
									c-2.9-1.1-6.1-1.4-8.6-3.1c-0.6-0.4-1.1-0.9-1.8-1c-1.7-0.5-3.3,1.2-4,2.8c-0.7,1.6-1.1,4.3-2.8,4.9c-2.3,0.7-4.7-0.5-6.5-2
									c-1.8-1.5-3.5-3.4-5.8-4.2c-2.3-0.8-5.4,0.2-5.8,2.5c-0.4,2,1.3,4.4,0.1,6c-1.2,1.7-3.9,0.7-5.4-0.8
									c-1.4-1.5-2.8-3.5-4.8-3.6c0.1,2.5-2.8,4.5-5,3.6c-0.9-0.4-1.8-1.1-2.6-1.4c2.2-0.7,2.9-4.1,1.1-5.5
									c2.2,0.6,3.7-2.6,2.6-4.5c-1-2-3.4-2.7-5.5-3.4c1.8-3,0-7-2.9-8.9c-2.9-1.9-5.8-1.8-9.2-2.1c-1.8-2.8-5.3-4.5-8.7-4.2
									c1.1,2.3-0.7,5.4-3.2,5.6c-2.5,0.2-4.7-2.7-3.9-5.1c0.5-1.4,1.9-2.7,1.8-4.2c-0.3-4.1-9.3-2.2-9.5-6.3
									c-0.1-1.6,1.5-3.2,1-4.7c-0.8-2.3-5.7-2.3-5-4.6c0.2-0.5,0.6-0.9,0.9-1.4c1.2-2-1.7-4.3-3.9-3.6c-2.2,0.7-3.4,3-4.4,5
									c-1.1-2.2-3.5-4.8-5.6-3.4c-0.7,0.5-1.1,1.4-1.9,1.7c-1.5,0.7-3-1-3.3-2.6c-0.3-1.6,0-3.3-0.7-4.8c-0.9-1.9-3.5-2.7-5.3-1.7
									c-1.3,0.7-2.8,2.2-3.9,1.2c-0.9-0.8-0.3-2.3-0.5-3.5c-0.4-1.9-2.8-2.5-4.8-2.7c-2-0.3-4.4-1.4-4.2-3.3
									c0.1-0.8,0.6-1.5,0.7-2.3c0.1-1.9-2.6-2.7-4.4-2.3c-1.9,0.5-3.8,1.5-5.6,0.8c0.1-0.9,0.1-1.8,0.2-2.7
									c-1.1-3.1-3-6.9-6.3-6.8c-1.3,0.1-2.6,0.8-3.9,1.1c-1.3,0.3-3-0.1-3.4-1.3c-0.3-0.8,0.1-1.6,0.2-2.5
									c0.4-3.8-3.8-6.4-7.4-7.8c-0.8-0.3-1.6-0.6-2.5-0.4c-3,0.7-1.8,5.5-3.8,7.8c-1.2-1.8-4.5-1.2-5,0.9c-0.2,0.9,0,1.8,0,2.7
									c-0.1,3.1-4.6,5.3-6.5,2.9c-1-1.3-0.9-3.2-1.1-4.9c-0.3-2.7-2-5.3-4.5-6.3c-2.6-0.9-5.9,0.4-6.5,3c-0.3,1.2-0.3,2.8-1.5,3.2
									c-1.6,0.5-2.4-2-3.8-2.8c-1.6-0.9-3.6,0.4-4.3,2.1c-0.7,1.7-0.4,3.5-0.5,5.4c-0.1,0.8-0.3,1.6-0.6,2.4
									c-1.1,0.7-2.4,1.4-3.6,1.9c-0.1-0.7-0.2-1.4-0.4-2.2c2.6,0.3,4.5-3.6,2.7-5.5c-0.6-0.6-1.5-1-1.9-1.8
									c-0.7-1.2-0.1-2.8-1-3.9c-0.9-1.1-2.6-0.9-4-0.8c-1.4,0.1-3.3-0.4-3.3-1.8c-0.1-1.8,2.9-2.7,2.6-4.4c-0.1-0.7-0.6-1.2-1-1.6
									c-2.3-2.2-5.3-4.5-8.3-3.4c-0.9,0.3-1.8,0.9-2.7,0.8c-2.1-0.2-2.2-3.3-1.2-5.2c0.9-1.9,2.2-4.1,1-5.8
									c-0.9-1.3-2.7-1.3-4.3-1.5c-1.6-0.2-3.4-1-3.5-2.6c0-1.1,0.9-2.2,0.5-3.2c-0.6-1.2-2.3-0.9-3.5-1.3c-1.3-0.5-2.1-1.9-2.9-3
									c-0.9-1.1-2.5-2-3.7-1.2c-1,0.7-1.2,2.5-2.4,2.7c-1,0.1-1.7-0.9-2.4-1.5c-1.7-1.5-4.3-1.3-6.4-0.5c-2.1,0.8-4,2.1-6.2,2.7
									c-0.7,0.2-1.3,0.3-2,0.1c-1.3-0.5-1.8-2.1-2.5-3.3c-1.5-2.6-4.9-3.7-8-3.3c-3,0.4-5.8,1.9-8.4,3.4c-0.3,0.1-0.5,0.3-0.8,0.5
									c-1.5,1-2.9,2.4-2.5,4.1c0.4,1.5,2.1,2.6,2.5,3.9c0.1,0.3,0.1,0.7,0,1v380.1c103.9,0.5,403.8-0.5,403.8-0.5
									c-0.2-1-0.5-2-0.7-3.1c1.2-2,1.7-4.9,3.9-5.6c0.6-0.2,1.3-0.2,1.9-0.5c2-1,0.7-3.9,0.2-6c-1.1-4.5,2.3-10.1-0.8-13.5
									c-1.1-1.2-2.7-1.7-4.1-2.5c-1.4-0.8-2.6-2.3-2.3-3.9c3.5-0.8,7-1.7,10.5-2.5c0.7-0.2,1.4-0.3,2-0.8c1.8-1.5,0.7-4.4-0.2-6.5
									c-0.9-2.2-0.8-5.6,1.5-5.8c1.4-0.1,2.4,1.1,3.7,1.5c2.3,0.7,4.8-2.1,3.8-4.3c1.6,1.5,4.4-0.5,4.4-2.7
									S427.5,754.2,425.9,752.6L425.9,752.6z M224.5,546.8c0.7-0.5,1.6-0.4,2.5-0.4c-1.6,1.1-0.4,4.4-1.5,5.8
									C223.9,550.6,222.7,548,224.5,546.8L224.5,546.8z"/>
							</g>
						</g>
						
							<linearGradient id="SVGID_00000168102279494452639930000012544510300684750259_" gradientUnits="userSpaceOnUse" x1="174.1805" y1="1569.0532" x2="174.1805" y2="1202.884" gradientTransform="matrix(1 0 0 -1 539.04 2402.3401)">
							<stop  offset="3.000000e-02" style="stop-color:#FCB8C1"/>
							<stop  offset="1" style="stop-color:#EC929C"/>
						</linearGradient>
						<path style="fill:url(#SVGID_00000168102279494452639930000012544510300684750259_);" d="M1425,1077.4H1.4V808.7h1149.7
							c10.7,17.9,23.3,34.6,38.1,49.6c58.7,58.9,147,83.6,199.5,148C1405.7,1027.1,1418,1051.5,1425,1077.4L1425,1077.4z"/>
					</g>
					<path class="st9" d="M1515.2,1025.2c-59.6-71.1-158.5-97.3-224.8-162.3c-10.1-9.9-19.2-20.5-27.6-31.7
						c-4-5.3-7.8-10.7-11.4-16.3c-1.4-2.2-2.9-4.5-4.3-6.7c-26.4-42.8-43.6-91.9-56.9-140.8c-18.8-68.9-32.6-142.2-77-198.2
						c-4-5-8.1-9.8-12.4-14.4c-56.3-59.8-140.3-84.2-224.7-97.8c-20.4-3.3-40.9-6-61-8.4c-109.4-13-229-28.6-304.1-109.2
						c-24.2-26-42.1-57.3-63.9-85.2C384.4,73.9,288.7,22.4,188.4,4.5c-3.8-0.7-7.7-1.3-11.5-1.9H1.4v80.3
						c69-16.2,140.9-20.1,210.3-6.7c89.7,17.2,174.8,64.4,230.1,137.1c19.3,25.3,34.9,53.5,56.3,77.1
						c66.4,73.1,173.4,88.5,271.3,101.4c18,2.4,36.2,5,54.5,8.2c75.4,13.2,150.5,36,200.2,90.3c3.8,4.2,7.5,8.5,11,13.1
						c39.1,50.7,50.6,116.5,66.6,178.5c11.4,44,26.2,88.2,49.4,126.8c1.2,2,2.5,4.1,3.8,6.1c3.2,5,6.5,10,10,14.8
						c7.3,10.1,15.4,19.8,24.3,28.7c58.7,58.9,147,83.6,199.5,148c16.9,20.8,29.2,45.3,36.2,71.1h122.2
						C1539.1,1058.6,1528.4,1040.9,1515.2,1025.2z"/>
				</g>
				<g class="st2">
					<g class="st3">
						<path class="st10" d="M700.4,855.5c0,1.3-11,2.4-24.6,2.4s-24.6-1-24.6-2.4s11-2.4,24.6-2.4S700.4,854.2,700.4,855.5z"/>
						<ellipse class="st10" cx="248.9" cy="877.7" rx="29.3" ry="2.8"/>
						<ellipse class="st10" cx="156.3" cy="959.8" rx="25.5" ry="2.8"/>
						<path class="st10" d="M811.9,1012.3c0,1.8-16.7,3.3-37.3,3.3c-20.6,0-37.3-1.5-37.3-3.3s16.7-3.3,37.3-3.3
							C795.2,1008.9,811.9,1010.4,811.9,1012.3z"/>
						<ellipse class="st10" cx="998.4" cy="936.2" rx="37.3" ry="2.8"/>
						<ellipse class="st10" cx="226.7" cy="1014.6" rx="30.7" ry="2.8"/>
						<path class="st10" d="M880.6,952c42.4-2.9,67.2-6.3,67.2-10.1c0-7.8-107.3-14.4-257.4-16.9c-18.9-11-102.2-4.9-110.9-8.6
							c-9.9-4.3,65.2-8.5,66.6-18.4c1.4-9.9-152.3-4.3-155.9-9.9c-3.5-5.7,158-0.7,153-9.2c-5-8.5-235.2-2.8-264.9,6.4
							c-29.8,9.2,73.7,7.8,86.4,17c12.8,9.2-86.4,3.5-103.4,9.9c-11.4,4.3-2.4,10.5,4.8,14.1c-119.5,3.1-200.3,8.9-200.3,15.7
							c0,5,43.6,9.4,114.1,12.7c7.1,3.2,12.4,6.5,10.6,9.1c-4.7,6.6-193.6,3.8-182.3,17s351.4,0.9,355.1,10.4
							c3.8,9.5-184.2,3.8-173.8,17.9c10.4,14.2,442.1,17.9,437.3,4.7c-4.7-13.2-81.2-19.8-57.6-27.4c23.6-7.6,290.9,4.7,295.6-10.4
							C968.6,963.7,902.4,961.3,880.6,952z M337.7,961.7c-17.2,0-31.2-1.3-31.2-2.8c0-1.6,13.9-2.8,31.2-2.8
							c17.2,0,31.2,1.3,31.2,2.8C368.8,960.5,354.9,961.7,337.7,961.7z M437.3,938.1c-19,0-34.5-1.7-34.5-3.8s15.4-3.8,34.5-3.8
							s34.5,1.7,34.5,3.8S456.4,938.1,437.3,938.1z M501.6,995.7c-15.9,0-28.8-1-28.8-2.4s12.9-2.4,28.8-2.4c15.9,0,28.8,1,28.8,2.4
							S517.5,995.7,501.6,995.7z M631.4,950.4c-17.7,0-32.1-1.7-32.1-3.8s14.4-3.8,32.1-3.8c17.7,0,32.1,1.7,32.1,3.8
							S649.2,950.4,631.4,950.4z M822.7,958.9c-17.5,0-31.7-1.3-31.7-2.8s14.2-2.8,31.7-2.8s31.7,1.3,31.7,2.8
							S840.2,958.9,822.7,958.9z"/>
					</g>
					<g class="st3">
						
							<linearGradient id="SVGID_00000155851329295813185110000004909069503296994949_" gradientUnits="userSpaceOnUse" x1="-378.3322" y1="1922.5836" x2="353.8929" y2="1922.5836" gradientTransform="matrix(1 0 0 -1 539.04 2402.3401)">
							<stop  offset="0.18" style="stop-color:#D6314F"/>
							<stop  offset="1" style="stop-color:#EA5471"/>
						</linearGradient>
						<path style="fill:url(#SVGID_00000155851329295813185110000004909069503296994949_);" d="M160.7,453.2v43.3
							c0,0,597.1,11,732.2,9.8v-44.2C892.9,462.1,628.1,471.6,160.7,453.2L160.7,453.2z"/>
						<path class="st12" d="M669.3,471.4c-235.6,0-513-16.8-516.9-17l0.3-4.6c5.3,0.3,529,32,748,8.1l0.5,4.6
							C841.2,469,758.2,471.4,669.3,471.4z"/>
						
							<linearGradient id="SVGID_00000147183410358947996730000014551565391859104667_" gradientUnits="userSpaceOnUse" x1="-14.8408" y1="1976.1693" x2="-14.8408" y2="2082.4326" gradientTransform="matrix(1 0 0 -1 539.04 2402.3401)">
							<stop  offset="0.18" style="stop-color:#D6314F"/>
							<stop  offset="1" style="stop-color:#EA5471"/>
						</linearGradient>
						<path style="fill:url(#SVGID_00000147183410358947996730000014551565391859104667_);" d="M99.5,318.6l17.9,31.2l35.2,1.7
							l10.4,34.7c278.3,30,734.5,9.2,734.5,9.2l8.1-32.3l30.6-2.9l12.7-30C948.9,330.2,541.8,376.9,99.5,318.6L99.5,318.6z"/>
						<path class="st12" d="M70.6,278.8l11.6,37.5c0,0,237.3,33.5,355.7,33.5v8.7h182.5v-9.2c0,0,240.2,0.6,357.4-22.5l12.1-38.1
							C990,288.6,516.4,385.1,70.6,278.8L70.6,278.8z"/>
						
							<linearGradient id="SVGID_00000126281098429585048760000003937226734380172219_" gradientUnits="userSpaceOnUse" x1="-491.5097" y1="2111.1697" x2="474.013" y2="2111.1697" gradientTransform="matrix(1 0 0 -1 539.04 2402.3401)">
							<stop  offset="0.29" style="stop-color:#FAB4B8"/>
							<stop  offset="1" style="stop-color:#EA5471"/>
						</linearGradient>
						<path style="fill:url(#SVGID_00000126281098429585048760000003937226734380172219_);" d="M47.5,248.2l4.1,25.7
							c0,0,426.8,127.3,954.5,11.8l6.9-27.7C1013.1,258,567.8,367.2,47.5,248.2L47.5,248.2z"/>
						<g>
							<path class="st15" d="M282.9,449.6l-0.2,9.9l94.3,1.6l0.2-9.4C377.2,451.6,329.7,454.7,282.9,449.6z"/>
							
								<rect x="271.9" y="437.5" transform="matrix(0.9189 -0.3944 0.3944 0.9189 -150.6516 151.6272)" class="st15" width="43.3" height="9.6"/>
							
								<rect x="363.7" y="421.9" transform="matrix(0.4247 -0.9053 0.9053 0.4247 -189.5325 588.8268)" class="st15" width="9.6" height="43.3"/>
							
								<linearGradient id="SVGID_00000138558159642929247990000009923809824548720262_" gradientUnits="userSpaceOnUse" x1="-213.709" y1="1986.0872" x2="-213.709" y2="1736.3826" gradientTransform="matrix(1 0 0 -1 539.04 2402.3401)">
								<stop  offset="0.18" style="stop-color:#D6314F"/>
								<stop  offset="1" style="stop-color:#EA5471"/>
							</linearGradient>
							<polygon style="fill:url(#SVGID_00000138558159642929247990000009923809824548720262_);" points="343.6,916.4 352.2,407.6 
								307,406.9 298.5,916.4 							"/>
							<path class="st15" d="M295.7,396.4l-0.2,11.4c0,2.2,1.7,4,3.9,4l62.5,1c2.2,0,4-1.7,4-3.9l0.2-12.1c0-1.1-0.6-2.1-1.6-2.6
								c-7.1-3.5-36.2-16-67.2-0.3C296.4,394.4,295.8,395.4,295.7,396.4L295.7,396.4z"/>
						</g>
						<g>
							<path class="st15" d="M775.1,455.3l0.2,9.9l-94.3,1.6l-0.2-9.4C680.8,457.4,728.3,460.4,775.1,455.3z"/>
							
								<rect x="759.8" y="426.4" transform="matrix(0.3944 -0.9189 0.9189 0.3944 51.2927 973.9017)" class="st15" width="9.6" height="43.3"/>
							
								<rect x="667.8" y="444.5" transform="matrix(0.9053 -0.4247 0.4247 0.9053 -125.5458 335.3377)" class="st15" width="43.3" height="9.6"/>
							
								<linearGradient id="SVGID_00000120560812778138170930000006832683042183501488_" gradientUnits="userSpaceOnUse" x1="166.8128" y1="1737.8136" x2="220.8796" y2="1737.8136" gradientTransform="matrix(1 0 0 -1 539.04 2402.3401)">
								<stop  offset="0.18" style="stop-color:#D6314F"/>
								<stop  offset="1" style="stop-color:#EA5471"/>
							</linearGradient>
							<polygon style="fill:url(#SVGID_00000120560812778138170930000006832683042183501488_);" points="759.4,916.4 751,412.7 
								705.9,413.4 714.3,916.4 							"/>
							<path class="st15" d="M762.3,402.2l0.2,11.4c0,2.2-1.7,4-3.9,4l-62.5,1c-2.2,0-4-1.7-4-3.9l-0.2-12.1c0-1.1,0.6-2.1,1.6-2.6
								c7.1-3.5,36.2-16,67.2-0.3C761.6,400.2,762.2,401.2,762.3,402.2L762.3,402.2z"/>
						</g>
						<g>
							<rect x="497.5" y="394.9" class="st12" width="62" height="80.4"/>
							<rect x="506.4" y="401.6" class="st15" width="44.2" height="66.9"/>
							<rect x="513" y="407.4" class="st12" width="31.1" height="55.4"/>
						</g>
						<g>
							<path class="st18" d="M304.4,576.1h12.5c1.8,0,3.4,1.5,3.4,3.4v1.6h-19.2v-1.6C301.1,577.6,302.6,576.1,304.4,576.1
								L304.4,576.1z"/>
							
								<linearGradient id="SVGID_00000076580505517038400440000012793521139868607108_" gradientUnits="userSpaceOnUse" x1="-228.4017" y1="1777.5844" x2="-228.4017" y2="1555.4515" gradientTransform="matrix(1 0 0 -1 539.04 2402.3401)">
								<stop  offset="0.18" style="stop-color:#D6314F"/>
								<stop  offset="1" style="stop-color:#EA5471"/>
							</linearGradient>
							<polygon style="fill:url(#SVGID_00000076580505517038400440000012793521139868607108_);" points="344.8,942.5 276.5,942.5 
								283.1,620.9 338.2,620.9 							"/>
							<rect x="271.6" y="601.5" class="st20" width="78" height="20.5"/>
							<rect x="264.5" y="596.1" class="st20" width="92.2" height="8.8"/>
							<path class="st12" d="M320.1,580.1h-21.4c-0.3,0-0.7,0.1-1,0.2c-3.5,1.4-25.4,10.4-44.5,13.7c0,0,46.2,31.1,114.8,0
								c0,0-31.5-7.7-47-13.7C320.8,580.2,320.5,580.1,320.1,580.1L320.1,580.1z"/>
							<g>
								<rect x="302.8" y="652.8" class="st21" width="15.7" height="63.8"/>
								
									<linearGradient id="SVGID_00000051383621227319182000000009807405130018958241_" gradientUnits="userSpaceOnUse" x1="-239.9632" y1="1746.3855" x2="-216.8403" y2="1746.3855" gradientTransform="matrix(1 0 0 -1 539.04 2402.3401)">
									<stop  offset="0.29" style="stop-color:#FAB4B8"/>
									<stop  offset="1" style="stop-color:#EA5471"/>
								</linearGradient>
								<path style="fill:url(#SVGID_00000051383621227319182000000009807405130018958241_);" d="M302.5,650.5h16.3
									c1.9,0,3.4,1.5,3.4,3.4v7.5h-23.1v-7.5C299.1,652,300.6,650.5,302.5,650.5z"/>
								
									<linearGradient id="SVGID_00000181786882825797777530000015203745834723161250_" gradientUnits="userSpaceOnUse" x1="-239.9632" y1="1732.3304" x2="-216.8403" y2="1732.3304" gradientTransform="matrix(1 0 0 -1 539.04 2402.3401)">
									<stop  offset="0.29" style="stop-color:#FAB4B8"/>
									<stop  offset="1" style="stop-color:#EA5471"/>
								</linearGradient>
								<path style="fill:url(#SVGID_00000181786882825797777530000015203745834723161250_);" d="M302.5,664.6h16.3
									c1.9,0,3.4,1.5,3.4,3.4v7.5h-23.1V668C299.1,666.1,300.6,664.6,302.5,664.6z"/>
								
									<linearGradient id="SVGID_00000173138626436722767250000000669570666855542946_" gradientUnits="userSpaceOnUse" x1="-239.9632" y1="1704.8153" x2="-216.8403" y2="1704.8153" gradientTransform="matrix(1 0 0 -1 539.04 2402.3401)">
									<stop  offset="0.29" style="stop-color:#FAB4B8"/>
									<stop  offset="1" style="stop-color:#EA5471"/>
								</linearGradient>
								
									<rect x="299.1" y="678.5" style="fill:url(#SVGID_00000173138626436722767250000000669570666855542946_);" width="23.1" height="38.1"/>
							</g>
							<g>
								<rect x="302.8" y="845.6" class="st21" width="15.7" height="63.8"/>
								
									<linearGradient id="SVGID_00000183219183957980321750000016768211705047907245_" gradientUnits="userSpaceOnUse" x1="-239.9632" y1="1553.5529" x2="-216.8403" y2="1553.5529" gradientTransform="matrix(1 0 0 -1 539.04 2402.3401)">
									<stop  offset="0.29" style="stop-color:#FAB4B8"/>
									<stop  offset="1" style="stop-color:#EA5471"/>
								</linearGradient>
								<path style="fill:url(#SVGID_00000183219183957980321750000016768211705047907245_);" d="M302.5,843.3h16.3
									c1.9,0,3.4,1.5,3.4,3.4v7.5h-23.1v-7.5C299.1,844.9,300.6,843.3,302.5,843.3z"/>
								
									<linearGradient id="SVGID_00000143587373656482063370000003765368799779110281_" gradientUnits="userSpaceOnUse" x1="-239.9632" y1="1539.4978" x2="-216.8403" y2="1539.4978" gradientTransform="matrix(1 0 0 -1 539.04 2402.3401)">
									<stop  offset="0.29" style="stop-color:#FAB4B8"/>
									<stop  offset="1" style="stop-color:#EA5471"/>
								</linearGradient>
								<path style="fill:url(#SVGID_00000143587373656482063370000003765368799779110281_);" d="M302.5,857.4h16.3
									c1.9,0,3.4,1.5,3.4,3.4v7.5h-23.1v-7.5C299.1,858.9,300.6,857.4,302.5,857.4z"/>
								
									<linearGradient id="SVGID_00000016049437681355235980000016368645460511421585_" gradientUnits="userSpaceOnUse" x1="-239.9632" y1="1511.9828" x2="-216.8403" y2="1511.9828" gradientTransform="matrix(1 0 0 -1 539.04 2402.3401)">
									<stop  offset="0.29" style="stop-color:#FAB4B8"/>
									<stop  offset="1" style="stop-color:#EA5471"/>
								</linearGradient>
								
									<rect x="299.1" y="871.3" style="fill:url(#SVGID_00000016049437681355235980000016368645460511421585_);" width="23.1" height="38.1"/>
							</g>
						</g>
						<g>
							<path class="st18" d="M740.5,575.4h12.5c1.8,0,3.4,1.5,3.4,3.4v1.6h-19.2v-1.6C737.1,576.9,738.6,575.4,740.5,575.4
								L740.5,575.4z"/>
							
								<linearGradient id="SVGID_00000129197720101429898270000010982812061215358620_" gradientUnits="userSpaceOnUse" x1="207.6605" y1="1771.2086" x2="207.6605" y2="1492.9688" gradientTransform="matrix(1 0 0 -1 539.04 2402.3401)">
								<stop  offset="0.18" style="stop-color:#D6314F"/>
								<stop  offset="1" style="stop-color:#EA5471"/>
							</linearGradient>
							<polygon style="fill:url(#SVGID_00000129197720101429898270000010982812061215358620_);" points="780.9,941.8 712.5,941.8 
								719.2,620.2 774.2,620.2 							"/>
							<rect x="707.7" y="600.8" class="st20" width="78" height="20.5"/>
							<rect x="700.6" y="595.4" class="st20" width="92.2" height="8.8"/>
							<path class="st12" d="M756.2,579.4h-21.4c-0.3,0-0.7,0.1-1,0.2c-3.5,1.4-25.4,10.4-44.5,13.7c0,0,46.2,31.1,114.8,0
								c0,0-31.5-7.7-47-13.7C756.9,579.4,756.5,579.4,756.2,579.4L756.2,579.4z"/>
							<g>
								<rect x="738.8" y="652.1" class="st21" width="15.7" height="63.8"/>
								
									<linearGradient id="SVGID_00000103222850171342768370000014457562201184844187_" gradientUnits="userSpaceOnUse" x1="196.1132" y1="1747.0939" x2="219.2361" y2="1747.0939" gradientTransform="matrix(1 0 0 -1 539.04 2402.3401)">
									<stop  offset="0.29" style="stop-color:#FAB4B8"/>
									<stop  offset="1" style="stop-color:#EA5471"/>
								</linearGradient>
								<path style="fill:url(#SVGID_00000103222850171342768370000014457562201184844187_);" d="M738.6,649.8h16.3
									c1.9,0,3.4,1.5,3.4,3.4v7.5h-23.1v-7.5C735.2,651.3,736.7,649.8,738.6,649.8L738.6,649.8z"/>
								
									<linearGradient id="SVGID_00000080897240771037673120000004114778479939196095_" gradientUnits="userSpaceOnUse" x1="196.1132" y1="1733.0388" x2="219.2361" y2="1733.0388" gradientTransform="matrix(1 0 0 -1 539.04 2402.3401)">
									<stop  offset="0.29" style="stop-color:#FAB4B8"/>
									<stop  offset="1" style="stop-color:#EA5471"/>
								</linearGradient>
								<path style="fill:url(#SVGID_00000080897240771037673120000004114778479939196095_);" d="M738.6,663.9h16.3
									c1.9,0,3.4,1.5,3.4,3.4v7.5h-23.1v-7.5C735.2,665.4,736.7,663.9,738.6,663.9L738.6,663.9z"/>
								
									<linearGradient id="SVGID_00000182491911630959918180000018037997195314274455_" gradientUnits="userSpaceOnUse" x1="196.1132" y1="1705.5237" x2="219.2361" y2="1705.5237" gradientTransform="matrix(1 0 0 -1 539.04 2402.3401)">
									<stop  offset="0.29" style="stop-color:#FAB4B8"/>
									<stop  offset="1" style="stop-color:#EA5471"/>
								</linearGradient>
								
									<rect x="735.2" y="677.8" style="fill:url(#SVGID_00000182491911630959918180000018037997195314274455_);" width="23.1" height="38.1"/>
							</g>
							<g>
								<rect x="738.8" y="844.9" class="st21" width="15.7" height="63.8"/>
								
									<linearGradient id="SVGID_00000055671375585143231700000003488247652414442931_" gradientUnits="userSpaceOnUse" x1="196.1132" y1="1554.2614" x2="219.2361" y2="1554.2614" gradientTransform="matrix(1 0 0 -1 539.04 2402.3401)">
									<stop  offset="0.29" style="stop-color:#FAB4B8"/>
									<stop  offset="1" style="stop-color:#EA5471"/>
								</linearGradient>
								<path style="fill:url(#SVGID_00000055671375585143231700000003488247652414442931_);" d="M738.6,842.6h16.3
									c1.9,0,3.4,1.5,3.4,3.4v7.5h-23.1V846C735.2,844.2,736.7,842.6,738.6,842.6L738.6,842.6z"/>
								
									<linearGradient id="SVGID_00000100374489564244974390000005362815705842819006_" gradientUnits="userSpaceOnUse" x1="196.1132" y1="1540.2063" x2="219.2361" y2="1540.2063" gradientTransform="matrix(1 0 0 -1 539.04 2402.3401)">
									<stop  offset="0.29" style="stop-color:#FAB4B8"/>
									<stop  offset="1" style="stop-color:#EA5471"/>
								</linearGradient>
								<path style="fill:url(#SVGID_00000100374489564244974390000005362815705842819006_);" d="M738.6,856.7h16.3
									c1.9,0,3.4,1.5,3.4,3.4v7.5h-23.1v-7.5C735.2,858.2,736.7,856.7,738.6,856.7L738.6,856.7z"/>
								
									<linearGradient id="SVGID_00000069397061891000858520000011184865965013941152_" gradientUnits="userSpaceOnUse" x1="196.1132" y1="1512.6912" x2="219.2361" y2="1512.6912" gradientTransform="matrix(1 0 0 -1 539.04 2402.3401)">
									<stop  offset="0.29" style="stop-color:#FAB4B8"/>
									<stop  offset="1" style="stop-color:#EA5471"/>
								</linearGradient>
								
									<rect x="735.2" y="870.6" style="fill:url(#SVGID_00000069397061891000858520000011184865965013941152_);" width="23.1" height="38.1"/>
							</g>
						</g>
					</g>
				</g>
			</g>
		</g>
	</g>
</g>
</svg>
